<svg id="visual" viewBox="0 0 900 600" width="900" height="600" xmlns="http://www.w3.org/2000/svg" xmlns:xlink="http://www.w3.org/1999/xlink" version="1.1"><rect x="0" y="0" width="900" height="600" fill="#ffffff"></rect><path d="M0 356L37.5 377.8C75 399.7 150 443.3 225 457.5C300 471.7 375 456.3 450 430.8C525 405.3 600 369.7 675 345.8C750 322 825 310 862.5 304L900 298L900 601L862.5 601C825 601 750 601 675 601C600 601 525 601 450 601C375 601 300 601 225 601C150 601 75 601 37.5 601L0 601Z" fill="#3700ff" stroke-linecap="round" stroke-linejoin="miter"></path></svg>